<svg xmlns="http://www.w3.org/2000/svg" viewBox="0 0 40 40">
  <g fill="#EFA733">
    <ellipse cx="20" cy="7" rx="3.1" ry="7.2"/>
    <ellipse cx="20" cy="7" rx="3.1" ry="7.2" transform="rotate(30 20 20)"/>
    <ellipse cx="20" cy="7" rx="3.1" ry="7.2" transform="rotate(60 20 20)"/>
    <ellipse cx="20" cy="7" rx="3.1" ry="7.2" transform="rotate(90 20 20)"/>
    <ellipse cx="20" cy="7" rx="3.1" ry="7.2" transform="rotate(120 20 20)"/>
    <ellipse cx="20" cy="7" rx="3.1" ry="7.2" transform="rotate(150 20 20)"/>
    <ellipse cx="20" cy="7" rx="3.1" ry="7.2" transform="rotate(180 20 20)"/>
    <ellipse cx="20" cy="7" rx="3.1" ry="7.2" transform="rotate(210 20 20)"/>
    <ellipse cx="20" cy="7" rx="3.1" ry="7.2" transform="rotate(240 20 20)"/>
    <ellipse cx="20" cy="7" rx="3.1" ry="7.2" transform="rotate(270 20 20)"/>
    <ellipse cx="20" cy="7" rx="3.1" ry="7.2" transform="rotate(300 20 20)"/>
    <ellipse cx="20" cy="7" rx="3.1" ry="7.2" transform="rotate(330 20 20)"/>
  </g>
  <circle cx="20" cy="20" r="6.6" fill="#571F46"/>
  <circle cx="20" cy="20" r="6.6" fill="none" stroke="#EFA733" stroke-width="1.4" opacity="0.5"/>
</svg>
